<svg width="14" height="14" viewBox="0 0 14 14" fill="none" xmlns="http://www.w3.org/2000/svg">
<g clip-path="url(#clip0_1_24)">
<rect width="14" height="14" transform="matrix(-1 0 0 -1 14 14)" fill="white"/>
<path d="M12 0H13V1H12V0ZM1 0H2V1H1V0ZM11 1H12V2H11V1ZM9 10H8V11H9V12H5V11H6V10H5V11H3V10H4V9H3V8H1V7H3V5H1V4H3V2H4V1H10V2H11V4H13V5H11V7H13V8H11V9H10V10H11V11H9V10ZM2 1H3V2H2V1ZM13 3H14V4H13V3ZM0 3H1V4H0V3ZM13 8H14V9H13V8ZM0 8H1V9H0V8ZM11 11H12V12H11V11ZM2 11H3V12H2V11ZM12 12H13V13H12V12ZM9 12H10V13H9V12ZM4 12H5V13H4V12ZM1 12H2V13H1V12ZM8 13H9V14H8V13ZM5 13H6V14H5V13Z" fill="#00000C"/>
</g>
<defs>
<clipPath id="clip0_1_24">
<rect width="14" height="14" fill="white" transform="matrix(-1 0 0 -1 14 14)"/>
</clipPath>
</defs>
</svg>
