<svg width="14" height="14" viewBox="0 0 14 14" fill="none" xmlns="http://www.w3.org/2000/svg">
<g clip-path="url(#clip0_1_2)">
<rect width="14" height="14" fill="white"/>
<path d="M13 14H12V12H11V13H10V14H4V13H3V12H2V14H1V11H2V8H1V7H3V5H4V4H3V2H4V3H5V2H6V1H8V2H9V3H8V4H9V3H10V2H11V4H10V5H11V7H13V8H12V11H13V14ZM1 9H0V8H1V9ZM14 9H13V8H14V9ZM5 4H6V3H5V4ZM6 1H4V0H6V1ZM10 1H8V0H10V1Z" fill="#00000C"/>
</g>
<defs>
<clipPath id="clip0_1_2">
<rect width="14" height="14" fill="white"/>
</clipPath>
</defs>
</svg>
